<svg width="24" height="24" viewBox="0 0 24 24" fill="none" xmlns="http://www.w3.org/2000/svg">
<path d="M12 22.9543C13.1256 22.9543 14.2402 22.7326 15.2801 22.3018C16.3201 21.8711 17.265 21.2397 18.0609 20.4438C18.8568 19.6478 19.4882 18.7029 19.919 17.663C20.3497 16.6231 20.5714 15.5085 20.5714 14.3829V9.61714C20.5715 7.51146 19.7966 5.47941 18.3943 3.90857" stroke="#8B5E3C" stroke-width="1.5" stroke-linecap="round" stroke-linejoin="round"/>
<path d="M3.42871 11.5199V14.3828C3.42814 16.0701 3.9256 17.7201 4.85876 19.1259C5.79192 20.5318 7.11926 21.6309 8.67443 22.2856" stroke="#8B5E3C" stroke-width="1.5" stroke-linecap="round" stroke-linejoin="round"/>
<path d="M16.2863 2.19423C14.3176 1.05764 11.9781 0.749632 9.78231 1.33796C7.58654 1.92628 5.71441 3.36275 4.57773 5.33138C4.10969 6.13971 3.77946 7.02032 3.60059 7.93709" stroke="#8B5E3C" stroke-width="1.5" stroke-linecap="round" stroke-linejoin="round"/>
<path d="M11.1084 6.01708C11.7389 5.88618 12.3908 5.89847 13.0159 6.05305C13.641 6.20762 14.2235 6.50053 14.7203 6.91018C15.2172 7.31984 15.6157 7.83579 15.8866 8.41999C16.1575 9.00419 16.2939 9.64175 16.2855 10.2856V13.0456" stroke="#8B5E3C" stroke-width="1.5" stroke-linecap="round" stroke-linejoin="round"/>
<path d="M15.1887 16.6457C14.6054 17.2954 13.8376 17.7515 12.988 17.9529C12.1384 18.1542 11.2476 18.0913 10.4348 17.7725C9.62192 17.4537 8.92584 16.8942 8.43968 16.169C7.95352 15.4437 7.70048 14.5873 7.71441 13.7143V10.2857C7.71115 9.69692 7.82781 9.11364 8.05727 8.57141" stroke="#8B5E3C" stroke-width="1.5" stroke-linecap="round" stroke-linejoin="round"/>
<path d="M12 10.4742V13.3371" stroke="#8B5E3C" stroke-width="1.5" stroke-linecap="round" stroke-linejoin="round"/>
</svg>
