<svg width="50" height="50" viewBox="0 0 50 50" fill="none" xmlns="http://www.w3.org/2000/svg">
<circle cx="25" cy="25" r="25" fill="#8B5E3C"/>
<path d="M11.1472 19.8776C10.5348 17.7252 11.9128 16.007 13.799 15.2182C15.9997 14.3438 18.4142 14.1556 20.7241 14.6785C23.0341 15.2013 25.1312 16.4106 26.7392 18.1471C30.0769 21.7059 24.7244 27.0685 21.3806 23.5036C19.77 21.7915 17.9511 21.6325 15.8138 22.5253C13.9153 23.3141 11.6372 21.657 11.1472 19.8776ZM28.111 22.4397C28.0065 22.6852 27.8793 22.9206 27.7313 23.1428C28.3078 23.5202 28.978 23.7298 29.6671 23.7481C30.3561 23.7665 31.0366 23.5929 31.6324 23.2468C33.3287 22.2623 34.131 19.7797 32.9919 18.0676C30.0217 13.6039 25.0796 12.4359 20.0149 13.3042C19.639 13.3658 19.2802 13.5054 18.9616 13.7139C22.1163 13.9496 25.0682 15.3567 27.2353 17.6579C27.8497 18.2722 28.2625 19.0586 28.4189 19.9126C28.5753 20.7666 28.468 21.648 28.111 22.4397ZM33.0532 22.9472C32.65 23.4178 32.1494 23.7954 31.5859 24.0541C31.0223 24.3127 30.4093 24.4462 29.789 24.4453C28.9183 24.4381 28.0681 24.1813 27.3394 23.7054C26.9199 24.208 26.3984 24.6161 25.8093 24.9028C25.2203 25.1895 24.5771 25.3483 23.9221 25.3686H23.8548C22.9362 27.3865 22.6299 34.7486 22.6299 34.7486C22.1523 32.5962 23.0464 25.2708 23.0464 25.2708C22.2104 25.0676 21.4551 24.6181 20.8784 23.9806C20.5467 23.5829 20.1335 23.2608 19.6665 23.0362C19.1996 22.8115 18.6898 22.6894 18.1716 22.6781C17.4522 22.6985 16.7441 22.8628 16.0894 23.1612C15.6781 23.3325 15.2367 23.4198 14.7911 23.418C14.6563 23.418 14.5216 23.418 14.3869 23.418C15.7219 28.0224 14.491 32.052 15.2075 33.2749C16.0465 34.718 22.189 37.06 22.7892 36.9988C23.3893 36.9377 31.1241 34.2533 34.7679 32.0153C35.3803 31.6484 34.5597 27.2458 35.3252 24.1701C34.4687 23.9814 33.6819 23.5579 33.0532 22.9472ZM39.4529 17.8719C36.7889 13.7506 32.3856 12.5888 27.7742 13.1208C30.1573 13.9628 32.1958 15.5662 33.5737 17.6824C33.8759 18.1546 34.0784 18.6834 34.169 19.2364C34.2595 19.7894 34.2362 20.355 34.1004 20.8987C33.979 21.4241 33.7721 21.9261 33.488 22.3846C34.126 23.0576 34.9902 23.4721 35.9151 23.5488C36.84 23.6256 37.7608 23.3592 38.5014 22.8007C39.2419 22.2421 39.7503 21.4306 39.9292 20.5213C40.1081 19.612 39.9451 18.6687 39.4712 17.8719H39.4529Z" fill="white"/>
</svg>
